<?xml version="1.0" standalone="no"?>
<!DOCTYPE svg PUBLIC "-//W3C//DTD SVG 20010904//EN"
 "http://www.w3.org/TR/2001/REC-SVG-20010904/DTD/svg10.dtd">
<svg version="1.0" xmlns="http://www.w3.org/2000/svg"
 width="512.000000pt" height="512.000000pt" viewBox="0 0 512.000000 512.000000"
 preserveAspectRatio="xMidYMid meet">
<metadata>
Created by potrace 1.14, written by Peter Selinger 2001-2017
</metadata>
<g transform="translate(0.000000,512.000000) scale(0.100000,-0.100000)"
fill="#000000" stroke="none">
<path d="M962 4161 c-4 -3 -8 -17 -7 -31 0 -20 10 -30 49 -49 84 -41 78 62 78
-1303 -1 -841 -4 -1218 -11 -1241 -11 -32 -74 -83 -90 -72 -10 6 -23 -20 -26
-52 -1 -14 5 -24 14 -27 14 -3 834 -1 854 3 4 0 7 12 7 25 0 25 -36 60 -52 50
-4 -3 -8 -1 -8 4 0 5 -9 12 -19 15 -10 2 -27 17 -37 32 -16 24 -17 65 -17 509
0 266 3 488 7 494 4 8 15 8 31 2 16 -6 27 -6 31 1 4 6 10 7 17 0 7 -5 29 -6
53 -2 22 4 50 4 62 0 12 -5 24 -4 28 2 4 6 10 7 17 0 7 -5 29 -6 53 -2 22 4
50 4 62 0 12 -5 24 -4 28 2 4 6 10 7 17 0 7 -5 29 -6 53 -2 22 4 50 4 62 0 12
-5 24 -4 28 2 4 6 10 7 17 0 7 -5 29 -6 53 -2 22 4 50 4 62 0 12 -5 24 -4 28
2 4 6 11 6 19 -1 8 -7 18 -9 24 -6 9 6 26 7 143 5 32 0 62 2 68 6 5 3 10 2 10
-4 0 -6 11 -6 29 -1 15 4 34 4 41 0 7 -5 19 -6 25 -4 7 3 15 -2 18 -10 4 -9 2
-16 -4 -16 -6 0 -8 -9 -4 -21 8 -25 9 -309 1 -317 -3 -3 -1 -11 5 -19 9 -10 8
-13 0 -13 -7 0 -9 -5 -4 -12 11 -19 12 -37 2 -43 -4 -3 -4 -16 1 -30 6 -15 6
-27 0 -30 -5 -3 -7 -12 -3 -20 8 -22 9 -265 1 -265 -4 0 -3 -13 2 -30 5 -16 5
-32 0 -35 -5 -3 -5 -19 0 -35 5 -18 5 -32 -1 -36 -5 -3 -7 -10 -3 -15 5 -9 8
-88 4 -114 -1 -9 -1 -52 1 -150 0 -22 0 -44 -1 -50 -1 -5 -1 -32 0 -58 4 -121
-21 -217 -58 -217 -5 0 -13 -8 -16 -17 -5 -12 -9 -14 -14 -6 -12 20 -34 -2
-36 -35 -1 -17 3 -33 8 -35 6 -2 193 -3 415 -3 l405 1 3 31 c3 28 0 32 -47 54
-27 13 -50 29 -50 36 0 7 -5 14 -12 16 -9 3 -12 197 -12 784 -1 428 0 789 2
800 2 13 20 30 45 43 125 67 251 215 313 368 16 39 19 55 10 62 -7 6 -18 6
-26 1 -8 -5 -19 -6 -24 -2 -17 10 -56 11 -56 1 0 -6 -5 -7 -12 -3 -6 4 -59 8
-117 9 -136 3 -131 3 -131 19 0 12 70 14 433 12 493 -1 471 2 511 -86 18 -41
25 -47 46 -45 14 2 28 4 31 4 10 1 17 61 7 67 -5 3 -5 10 -2 16 9 14 9 166 1
174 -3 4 -2 15 3 25 7 12 7 20 0 24 -6 3 -7 14 -2 23 9 21 8 115 -2 131 -4 6
-4 11 1 11 9 0 9 83 -1 98 -3 6 -2 13 3 16 10 6 6 51 -6 69 -3 6 -1 7 5 4 6
-5 8 0 5 13 -3 11 -8 20 -12 21 -51 7 -53 6 -74 -40 -24 -50 -48 -73 -87 -81
-28 -6 -2277 -6 -2327 -1 -19 2 -33 10 -33 18 0 7 -4 13 -9 13 -9 0 -44 67
-44 85 0 6 -15 11 -34 11 -26 0 -35 -5 -39 -21 -3 -11 -4 -172 -2 -357 3 -318
2 -337 -15 -342 -11 -2 -21 2 -24 11 -8 20 -10 734 -2 738 3 2 32 4 65 4 32 1
68 1 79 2 29 1 47 0 75 -4 14 -2 33 1 43 5 11 6 17 5 17 -2 0 -6 5 -8 11 -5
13 9 107 10 115 3 3 -3 20 -2 38 2 19 4 39 4 46 0 7 -4 27 -4 46 0 19 4 36 4
39 0 2 -4 24 -4 47 0 24 5 47 5 53 2 14 -9 47 -8 68 1 10 4 17 4 17 -2 0 -6 9
-7 22 -2 12 4 39 5 60 1 21 -4 41 -4 44 1 2 4 15 5 27 0 12 -5 54 -9 92 -10
100 -2 223 -21 272 -42 24 -10 59 -34 78 -53 l35 -35 323 -1 c269 0 326 2 336
14 8 10 9 15 1 18 -6 2 -12 13 -13 26 0 12 -5 22 -10 22 -5 0 -7 7 -4 15 4 8
2 17 -4 20 -5 4 -18 23 -28 43 -10 20 -27 53 -37 72 -26 51 -173 191 -230 220
-27 14 -50 28 -52 33 -2 4 -11 7 -21 7 -9 0 -21 4 -27 9 -12 12 -154 54 -176
53 -10 0 -18 2 -18 6 0 4 -10 8 -22 8 -92 5 -114 8 -123 13 -13 8 -2012 9
-2023 2z m1805 -1054 c4 -4 7 -32 8 -62 0 -40 -4 -56 -15 -62 -21 -9 -968 -16
-954 -6 6 4 17 25 25 46 18 51 47 76 98 85 56 9 828 8 838 -1z"/>
</g>
</svg>
